<?xml version="1.0" encoding="UTF-8" standalone="no"?>
<svg
   width="16"
   height="16"
   viewBox="0 0 16 16"
   version="1.1"
   id="svg1"
   xmlns="http://www.w3.org/2000/svg"
   xmlns:svg="http://www.w3.org/2000/svg"
   xmlns:rdf="http://www.w3.org/1999/02/22-rdf-syntax-ns#"
   xmlns:cc="http://creativecommons.org/ns#"
   xmlns:dc="http://purl.org/dc/elements/1.1/">
  <!-- Generator: Sketch 3.7.2 (28276) - http://www.bohemiancoding.com/sketch -->
  <title
     id="title1">Group Copy 2</title>
  <desc
     id="desc1">Created with Sketch.</desc>
  <defs
     id="defs1" />
  <path
     id="Fill-35"
     style="fill:#dba200;fill-opacity:1;fill-rule:evenodd;stroke:none;stroke-width:0.24587"
     d="m 9.3356893,14.010549 c -0.02406,0.01097 -0.03224,0.05132 -0.01673,0.108055 0.01673,0.05395 0.107682,0.29009 0.107682,0.29009 0.06427,0.177664 0.173046,0.383253 0.319363,0.488799 0.156117,0.111697 0.236869,0.07244 0.2683747,0.06038 0.02316,-0.01299 0.123517,-0.07519 0.08772,-0.236791 -0.03827,-0.171229 -0.05925,-0.217405 -0.09051,-0.279891 -0.03049,-0.06253 -0.07192,-0.101297 -0.09646,-0.09073 -0.01474,0.0026 -0.0025,0.05888 -0.0025,0.09425 -0.0013,0.06228 -0.02272,0.109188 -0.07431,0.132054 -0.04564,0.01991 -0.1579,0.06066 -0.2442,-0.09454 -0.07091,-0.124931 -0.133398,-0.289968 -0.15964,-0.357229 -0.02146,-0.05281 -0.05342,-0.116595 -0.08679,-0.116595 -0.0035,0 -0.0062,0.0011 -0.01199,0.0021 z m -2.457582,0.459862 0.522173,0.438049 0.507716,-0.622552 -0.521768,-0.439222 z m 0.116876,-1.088403 0.520998,0.437927 0.509538,-0.620084 -0.522781,-0.441043 z m 3.3345927,-1.534183 0.612968,0.296161 0.338679,-0.73251 -0.612077,-0.293692 z M 7.1546233,11.334381 c 0.259669,0.615591 0.652656,1.149635 1.104242,1.542519 0.04702,-0.322345 0.09788,-0.549504 0.145669,-0.711506 -0.460779,-0.334647 -0.790914,-0.69645 -1.002472,-1.058172 z m 1.164259,-0.784919 0.613292,0.293611 0.339084,-0.73174 -0.612725,-0.2936923 z M 5.3580393,7.6337912 c 0,0 -0.382498,0.2756421 -0.53655,0.6406827 -0.0944,0.2233143 -0.08808,0.4649208 -0.03479,0.5817988 0.05443,0.1165944 0.181833,0.2281301 0.347791,0.093891 0.116187,-0.093891 0.167052,-0.2254187 0.192282,-0.3378446 0.01547,-0.066695 0.0207,-0.1087837 0.0207,-0.1415646 0,-0.041077 -0.01341,-0.075679 -0.05192,-0.066452 -0.110598,0.037192 -0.04487,0.1883884 -0.123841,0.2615584 -0.06002,0.037111 -0.215891,0.017078 -0.246629,-0.1388934 -0.03029,-0.1561742 0.088,-0.3569466 0.195278,-0.4898909 0.107521,-0.1333087 0.296522,-0.3077754 0.296522,-0.3077754 0,0 0.134856,-0.1132354 0.08913,-0.1692056 -0.0021,-0.00324 -0.007,-0.00465 -0.01247,-0.00465 -0.03936,0 -0.135505,0.07835 -0.135505,0.07835 z m 3.768563,-0.4047821 c -0.04625,0.049981 -0.264165,0.2925179 -0.473658,0.525545 -0.18734,0.2076118 -0.366096,0.405875 -0.405297,0.4495424 -0.08946,0.1009728 -0.136517,0.2002056 -0.12461,0.2537881 l 0.05402,0.2711093 c 0.0145,-0.050385 0.07168,-0.1423737 0.134735,-0.2136417 0.04495,-0.049981 0.262828,-0.2936917 0.47309,-0.5245739 0.186328,-0.2080164 0.365286,-0.4053085 0.404973,-0.4513635 0.09015,-0.098221 0.136841,-0.1987083 0.12453,-0.2511979 l -0.05544,-0.2731736 c -0.013,0.0516 -0.06909,0.1425763 -0.132345,0.2139658 z m -5.106839,3.9473359 c 0.07504,-0.240878 0.210465,-0.457029 0.44624,-0.592443 0.386791,-0.183572 0.538332,0.285962 0.538332,0.285962 -0.02697,0.317853 -0.264934,0.484711 -0.529827,0.484711 -0.155145,0 -0.320699,-0.05888 -0.454745,-0.17823 z m 2.878674,-7.6260712 c -0.262423,0.00712 -0.469081,0.2310036 -0.461751,0.4974994 0.0084,0.2677504 0.227028,0.4794901 0.489896,0.4709104 0.143807,-0.00409 0.267971,-0.073858 0.353624,-0.1753975 l 0.0099,-0.012021 c 0.05613,0.3856398 -0.125663,0.6937391 -0.548861,1.0502809 -0.432876,0.3702209 -1.445674,0.8530295 -2.165677,1.4317524 -1.013406,0.8136115 -1.252745,1.6993004 -1.314423,2.4163099 -0.0264,0.3200377 0.01956,0.7407253 0.105617,1.0886477 0.107683,0.437724 0.263759,0.772736 0.263759,0.772736 0,0 0.0081,0.014 0.02045,0.03792 -0.02572,0.474593 0.02142,1.303462 0.284899,1.929575 0.354149,0.807501 0.990565,1.468621 1.903578,1.274283 0.921518,-0.219914 1.024543,-1.74062 1.129593,-2.850959 0.02738,-0.181872 0.055,-0.214168 0.109829,-0.260789 0.148099,-0.127521 0.507391,-0.47002 0.678574,-0.62239 0.105941,-0.09482 0.19791,-0.189401 0.257604,-0.310406 0.07613,-0.146947 0.03584,-0.3428234 0.03584,-0.3428234 L 7.9476023,9.2137444 c -0.02555,0.1040487 -0.150812,0.2495791 -0.327016,0.4293881 -0.183493,0.1883883 -0.672701,0.6143365 -0.717248,0.6611605 -0.04418,0.04541 -0.2035,0.16269 -0.271576,0.721178 -0.176852,1.518844 -0.471551,2.235692 -1.00073,2.478067 -0.139635,0.06678 -0.296198,0.0979 -0.470215,0.102309 -0.969871,-0.0096 -1.224964,-1.208681 -1.220469,-1.865835 7.62e-4,-0.03861 0.0014,-0.07835 0.0036,-0.114369 0.225327,0.307857 0.557892,0.613244 0.968454,0.549706 0.654761,-0.101297 0.450938,-1.222158 0.35581,-1.482138 -0.09258,-0.261518 -0.346658,-1.0418227 -0.895559,-1.0031738 -0.388977,0.026791 -0.570162,0.4894058 -0.652656,0.8811568 -0.075,-0.309597 -0.115012,-0.6725331 -0.09071,-0.9560669 0.05783,-0.6781175 0.286641,-1.525117 1.259306,-2.359328 0.692951,-0.5937778 1.477992,-1.0178642 1.914513,-1.367769 0.277812,-0.2214931 0.450493,-0.4701416 0.547362,-0.7035328 -0.02738,0.2261471 -0.08245,0.4713557 -0.189406,0.7571154 -0.402908,1.0764649 -1.626131,2.8538324 -1.642573,5.3657333 0,0.772048 0.07148,1.439644 0.192565,2.010556 0.06633,-0.04601 0.128417,-0.106234 0.187422,-0.178433 -0.08496,-0.408425 -0.134046,-0.860557 -0.134046,-1.342678 0,-2.5061939 1.214759,-4.2812544 1.610944,-5.3554128 0.207387,-0.5657724 0.212652,-0.9782844 0.212652,-1.3854141 0,-0.4996441 -0.109869,-1.0211018 -0.212328,-1.2244239 C 7.2648163,3.636636 7.1273283,3.5502728 6.9216413,3.5502728 h -0.02321 z m 1.192728,-3.43639991 c -0.243834,0.17345498 -0.447334,0.56698656 -0.445916,1.16796801 0.0021,0.3694923 0.103754,0.8117095 0.384482,1.3068615 -0.376828,0.5212959 -0.445998,1.0019192 -0.286033,1.4612148 0.121532,0.3491763 0.18325,0.4398697 0.238691,0.6493027 0.138906,0.5315752 -0.01514,1.1694654 -0.428219,2.1529706 -0.334994,0.8018348 -0.770503,1.6402547 -0.770503,2.6614373 0.0021,0.2343222 0.02146,0.4621288 0.0541,0.6859292 0.03884,-0.03865 0.121735,-0.117526 0.22314,-0.2117404 -0.04985,-0.7999326 0.264246,-1.6047218 0.650226,-2.3273969 0.561455,-1.0558659 0.630544,-2.1298623 0.522537,-2.7176505 0.39408,0.4272432 1.058642,1.065943 1.446728,1.721033 0.130847,0.2206834 0.209493,0.4293475 0.228729,0.6418157 0.0183,0.5178153 -0.142105,0.8888456 -0.455433,1.2531174 -0.265015,0.3070872 -0.173288,0.5784799 -0.162152,0.6316172 0.02009,0.087415 0.128458,0.4221034 0.204269,0.6411683 0.294051,-0.5833769 1.1052537,-0.911954 1.4730507,-1.396867 0.08423,0.5972581 -0.358968,1.1653375 -0.687807,1.5460808 -0.07856,0.08592 -0.164217,0.1739404 -0.26133,0.2690054 -0.6228887,0.603328 -1.0316287,1.018188 -1.2481687,1.403504 -0.05544,0.08543 -0.145223,0.277099 -0.190175,0.424734 -0.0635,0.184544 -0.144576,0.497783 -0.212409,1.04935 -0.05151,0.325461 -0.109667,0.714055 -0.12866,0.887227 -0.04212,0.394138 -0.159398,1.019685 -0.636538,1.197835 -0.02628,0.01097 -0.05159,0.01712 -0.07824,0.02254 v 0.0022 c -0.45515,0.100649 -0.921153,-0.285679 -1.260035,-0.98043 -0.06986,0.05383 -0.145993,0.101661 -0.22881,0.138813 0.458916,1.09929 1.149477,1.604479 1.754345,1.604479 0.458349,0 0.820477,-0.23412 0.93634,-0.916972 0.06026,-0.34432 0.102458,-0.725751 0.140323,-1.096134 0.01863,-0.178069 0.105293,-1.18452 0.265298,-1.549561 0.197182,-0.409315 0.629491,-0.805396 1.2733987,-1.477524 0.397522,-0.417531 0.614386,-0.765088 0.727333,-1.0449394 0.374762,-0.6956005 -0.08946,-2.349696 -0.179606,-2.64703 -0.0028,-0.010644 -0.0038,-0.013073 -0.0098,-0.013073 -0.0092,0 -0.01199,0.00243 -0.01899,0.01457 -6.39e-4,0.00279 -0.0021,0.0049 -0.0035,0.00696 -0.165716,0.273821 -0.461751,0.5234813 -0.73689,0.7276936 0.154781,-0.4307642 0.112987,-0.758208 0.05123,-1.0336881 v -0.00211 c -0.0039,-0.015782 -0.0077,-0.032174 -0.01191,-0.047836 l -7.37e-4,0.0017 C 9.9449633,5.8245717 8.8371583,4.8474202 8.3378663,4.2842381 7.6886533,3.5545616 7.9097283,3.0845008 8.1490273,2.7857909 c 0.04491,0.066937 0.09128,0.1381246 0.143887,0.2095947 0.882883,1.2130518 2.5457847,3.1378518 3.4174097,4.971513 0.221399,0.4627761 0.39084,0.9180652 0.483903,1.3518644 0.343377,1.898981 -0.964688,3.830053 -2.9258127,3.287106 h -7.37e-4 c -0.01268,-0.003 -0.02632,-0.0068 -0.03778,-0.01081 -0.05313,0.168801 -0.103309,0.43813 -0.152716,0.806003 0.29717,0.127765 0.619286,0.204779 0.9319657,0.218499 l 3.2e-4,5.65e-4 c 0.0228,3.2e-4 0.04605,10e-4 0.06876,0.0018 1.61135,0.01781 2.872438,-1.204634 2.640469,-3.7701984 0,0 -0.09679,-1.0672785 -0.641681,-2.1913363 C 11.205291,5.6857779 9.5925243,3.7320417 8.6027683,2.4700211 8.2886713,2.0687597 8.1041653,1.7219711 8.0111833,1.4222088 c -0.185357,-0.58333646 -0.06743,-1.03538785 0.17021,-1.23324634 0.05119,-0.0437077 0.115094,-0.0926361 0.173288,-0.12185557 0.03544,-0.01894 0.02179,-0.06102897 -0.0035,-0.06568303 -0.0053,0 -0.01332,-0.001416495 -0.02183,-0.001416495 -0.0343,0 -0.102053,0.015702405 -0.238205,0.113842475 z M 6.2804073,4.3822587 c -0.26299,0.00826 -0.470458,0.2309228 -0.46163,0.5008585 0.0066,0.2662936 0.22638,0.4753621 0.490059,0.4686442 0.263678,-0.00716 0.470377,-0.2323795 0.461953,-0.4990373 -0.0073,-0.2621251 -0.218726,-0.4704654 -0.474629,-0.4704654 h -0.01575 z" />
  <metadata
     id="metadata1">
    <rdf:RDF>
      <cc:Work
         rdf:about="">
        <dc:title>Group Copy 2</dc:title>
      </cc:Work>
    </rdf:RDF>
  </metadata>
</svg>
