<?xml version="1.0" encoding="UTF-8" standalone="no"?>
<!-- Created with Inkscape (http://www.inkscape.org/) -->

<svg
   width="16"
   height="16"
   viewBox="0 0 4.2333332 4.2333333"
   version="1.1"
   id="svg1"
   xmlns="http://www.w3.org/2000/svg"
   xmlns:svg="http://www.w3.org/2000/svg">
  <defs
     id="defs1" />
  <g
     id="layer1">
    <path
       id="path19"
       d="m 4.1490524,3.0659389 c 0,-0.1351533 -0.2039099,-0.2458142 -0.4531332,-0.2458142 H 0.55325157 c -0.24922326,0 -0.45313321,0.1106609 -0.45313321,0.2458142 v 0.00142 0.9202172 c 0,0.1351533 0.20390995,0.2457614 0.45313321,0.2457614 H 3.6959192 c 0.2492233,0 0.4531332,-0.1106081 0.4531332,-0.2457614 v -0.9202172 -0.00142"
       style="fill:#273c4f;fill-opacity:1;fill-rule:nonzero;stroke:none;stroke-width:0.00524458;opacity:0.39964158" />
    <path
       id="path40"
       d="M 3.8473306,0.28383747 C 3.7996572,0.16462764 3.6712171,0.07866882 3.5212218,0.07866882 c 0,0 -0.5580776,0.06938602 -1.4212858,0.06938602 -0.8632085,0 -1.37261598,-0.06938602 -1.37261598,-0.06938602 -0.14270549,0 -0.26590108,0.07788227 -0.31860929,0.18812344 -0.0175695,0.0368171 -0.19620038,0.84993944 -0.23679357,0.98000564 -0.0135311,0.04332 -0.0208213,0.089525 -0.0208213,0.137356 l -0.0588967,1.9734372 c 0,0.2492232 0.20390995,0.4531332 0.45313321,0.4531332 H 3.6880523 c 0.2492233,0 0.4530809,-0.20391 0.4530809,-0.4531332 L 4.0822888,1.3841539 c 0,-0.03624 -0.0042,-0.071537 -0.012115,-0.1053641 C 4.0375521,1.1393361 3.8601277,0.3159344 3.8473306,0.28383747"
       style="fill:#ffffff;fill-opacity:1;fill-rule:nonzero;stroke:none;stroke-width:0.00524458" />
    <path
       id="path41"
       d="M 3.8473306,0.28383747 C 3.7996572,0.16462764 3.6712171,0.07866882 3.5212218,0.07866882 c 0,0 -0.5580776,0.06938602 -1.4212858,0.06938602 -0.8632085,0 -1.37261598,-0.06938602 -1.37261598,-0.06938602 -0.14270549,0 -0.26590108,0.07788227 -0.31860929,0.18812344 -0.0175695,0.0368171 -0.19620038,0.84993944 -0.23679357,0.98000564 -0.0135311,0.04332 -0.0208213,0.089525 -0.0208213,0.137356 l -0.0588967,1.9734372 c 0,0.2492232 0.20390995,0.4531332 0.45313321,0.4531332 H 3.6880523 c 0.2492233,0 0.4530809,-0.20391 0.4530809,-0.4531332 L 4.0822888,1.3841539 c 0,-0.03624 -0.0042,-0.071537 -0.012115,-0.1053641 C 4.0375521,1.1393361 3.8601277,0.3159344 3.8473306,0.28383747 Z"
       style="fill:#ffffff;stroke:#273c4f;stroke-width:0.157338;stroke-linecap:butt;stroke-linejoin:miter;stroke-miterlimit:10;stroke-dasharray:none;stroke-opacity:1" />
    <path
       id="path42"
       d="m 3.8671552,0.87721108 c 0,0 0.00215,0.0956614 0.00598,0.26306902 0.0032,0.1673552 0.00818,0.4064561 0.010752,0.6933882 1.573e-4,0.072218 0.0032,0.1454853 0.00105,0.2247836 C 3.8794818,2.142785 3.8317034,2.223814 3.7600623,2.2742145 3.6890502,2.3258736 3.6017804,2.3511004 3.5138285,2.361537 3.42745,2.370925 3.3395504,2.3785818 3.2499201,2.3855047 2.891557,2.4128292 2.5085965,2.4265699 2.125164,2.4275139 1.7422035,2.4264637 1.3589806,2.4120948 1.0006699,2.38519 0.91109228,2.3784245 0.82314039,2.3708723 0.7368665,2.3617467 0.64901962,2.3514151 0.56127738,2.3242479 0.49100004,2.2730081 0.4198833,2.223132 0.36979713,2.1427323 0.36366095,2.0593432 c -0.002466,-0.081029 8.3783e-4,-0.1530898 9.4403e-4,-0.2256749 0.002569,-0.2869321 0.007552,-0.526033 0.010804,-0.6933882 0.003827,-0.16740757 0.005979,-0.26306902 0.005979,-0.26306902 0,0 0.002203,0.0956614 0.006031,0.26306902 0.003253,0.1673552 0.008234,0.4064561 0.010804,0.6933882 0.001416,0.070907 4.2088e-4,0.148422 0.003933,0.2218988 0.006713,0.071903 0.0496138,0.1390867 0.11359798,0.1828793 0.0641415,0.044474 0.14281051,0.069019 0.22583223,0.078512 0.0854345,0.00855 0.17322905,0.015629 0.26249231,0.021922 0.3572094,0.024912 0.7391208,0.037027 1.1213475,0.03624 0.3817541,0.0011 0.7640329,-0.010542 1.1210849,-0.035873 0.1766378,-0.018198 0.3596218,-0.00813 0.4889013,-0.099437 0.063931,-0.043373 0.1049967,-0.112654 0.1111329,-0.183351 0.00346,-0.07526 0.00247,-0.1515164 0.00383,-0.2227905 0.00262,-0.2869321 0.0076,-0.526033 0.010804,-0.6933882 0.00378,-0.16740757 0.00598,-0.26306902 0.00598,-0.26306902"
       style="fill:#273c4f;fill-opacity:1;fill-rule:nonzero;stroke:none;stroke-width:0.00524458" />
    <path
       id="path43"
       d="M 3.7733294,2.4216401 3.9110001,3.4982512"
       style="fill:none;stroke:#273c4f;stroke-width:0.026223;stroke-linecap:round;stroke-linejoin:round;stroke-miterlimit:10;stroke-dasharray:none;stroke-opacity:1" />
    <path
       id="path44"
       d="M 0.50201212,2.4216401 0.36434144,3.4982512"
       style="fill:none;stroke:#273c4f;stroke-width:0.026223;stroke-linecap:round;stroke-linejoin:round;stroke-miterlimit:10;stroke-dasharray:none;stroke-opacity:1" />
    <text
       xml:space="preserve"
       style="font-style:normal;font-variant:normal;font-weight:500;font-stretch:normal;font-size:1.31441px;line-height:0.3;font-family:'New Rail Alphabet';-inkscape-font-specification:'New Rail Alphabet Medium';text-align:start;letter-spacing:-0.00143764px;word-spacing:0px;text-anchor:start;fill:#273c4f;fill-opacity:1;stroke-width:1.02689;stroke-linecap:round;stroke-linejoin:round;paint-order:stroke markers fill"
       x="0.4108943"
       y="1.5122097"
       id="text177"
       transform="scale(1.3070579,0.76507704)"><tspan
         id="tspan177"
         x="0.4108943"
         y="1.5122097"
         style="font-style:normal;font-variant:normal;font-weight:500;font-stretch:normal;font-family:'New Rail Alphabet';-inkscape-font-specification:'New Rail Alphabet Medium';text-align:start;text-anchor:start;fill:#273c4f;fill-opacity:1;stroke-width:1.02689">Z</tspan></text>
  </g>
</svg>
